<?xml version="1.0" encoding="UTF-8" standalone="no"?><!DOCTYPE svg PUBLIC "-//W3C//DTD SVG 1.1//EN" "http://www.w3.org/Graphics/SVG/1.1/DTD/svg11.dtd"><svg width="100%" height="100%" viewBox="0 0 209 209" version="1.1" xmlns="http://www.w3.org/2000/svg" xmlns:xlink="http://www.w3.org/1999/xlink" xml:space="preserve" xmlns:serif="http://www.serif.com/" style="fill-rule:evenodd;clip-rule:evenodd;stroke-linejoin:round;stroke-miterlimit:2;"><rect id="Artboard1" x="0" y="0" width="208.333" height="208.333" style="fill:none;"/><g id="Artboard11" serif:id="Artboard1"><g><path d="M20.833,37.498c-0.039,-0 -0.078,-0 -0.118,-0c-4.572,-0 -8.334,3.762 -8.334,8.334c0,4.572 3.762,8.334 8.334,8.334c0.04,-0 0.079,-0 0.118,-0.001l166.667,0c0.039,0.001 0.079,0.001 0.118,0.001c4.572,-0 8.334,-3.762 8.334,-8.334c0,-4.572 -3.762,-8.334 -8.334,-8.334c-0.039,-0 -0.079,-0 -0.118,0l-166.667,0Z" style="fill:#fff;fill-rule:nonzero;"/><path d="M20.833,95.833c-0.039,-0 -0.078,-0 -0.118,-0c-4.572,-0 -8.334,3.762 -8.334,8.334c0,4.572 3.762,8.334 8.334,8.334c0.04,-0 0.079,-0 0.118,-0.001l166.667,0c0.039,0.001 0.079,0.001 0.118,0.001c4.572,-0 8.334,-3.762 8.334,-8.334c0,-4.572 -3.762,-8.334 -8.334,-8.334c-0.039,-0 -0.079,-0 -0.118,0l-166.667,0Z" style="fill:#fff;fill-rule:nonzero;"/><path d="M20.833,154.168c-0.039,-0 -0.078,-0 -0.118,-0c-4.572,-0 -8.334,3.762 -8.334,8.334c0,4.572 3.762,8.334 8.334,8.334c0.04,-0 0.079,-0 0.118,-0.001l166.667,0c0.039,0.001 0.079,0.001 0.118,0.001c4.572,-0 8.334,-3.762 8.334,-8.334c0,-4.572 -3.762,-8.334 -8.334,-8.334c-0.039,-0 -0.079,-0 -0.118,0l-166.667,0Z" style="fill:#fff;fill-rule:nonzero;"/></g></g></svg>