<?xml version="1.0" encoding="UTF-8" standalone="no"?>
<!DOCTYPE svg PUBLIC "-//W3C//DTD SVG 1.1//EN" "http://www.w3.org/Graphics/SVG/1.1/DTD/svg11.dtd">
<svg width="100%" height="100%" viewBox="0 0 50 50" version="1.1" xmlns="http://www.w3.org/2000/svg" xmlns:xlink="http://www.w3.org/1999/xlink" xml:space="preserve" xmlns:serif="http://www.serif.com/" style="fill-rule:evenodd;clip-rule:evenodd;stroke-linejoin:round;stroke-miterlimit:2;">
    <rect id="Artboard1" x="0" y="0" width="50" height="50" style="fill:none;"/>
    <g id="Artboard11" serif:id="Artboard1">
        <g transform="matrix(1,0,0,1,3.55271e-15,0.9996)">
            <path d="M5,8C4.991,8 4.981,8 4.972,8C3.874,8 2.972,8.903 2.972,10C2.972,11.097 3.874,12 4.972,12C4.981,12 4.991,12 5,12L45,12C45.009,12 45.019,12 45.028,12C46.126,12 47.028,11.097 47.028,10C47.028,8.903 46.126,8 45.028,8C45.019,8 45.009,8 45,8L5,8Z" style="fill:rgb(236,101,119);fill-rule:nonzero;"/>
            <g transform="matrix(1,0,0,1,0,14.0004)">
                <path d="M5,8C4.991,8 4.981,8 4.972,8C3.874,8 2.972,8.903 2.972,10C2.972,11.097 3.874,12 4.972,12C4.981,12 4.991,12 5,12L45,12C45.009,12 45.019,12 45.028,12C46.126,12 47.028,11.097 47.028,10C47.028,8.903 46.126,8 45.028,8C45.019,8 45.009,8 45,8L5,8Z" style="fill:rgb(101,236,188);fill-rule:nonzero;"/>
            </g>
            <g transform="matrix(1,0,0,1,0,28.0008)">
                <path d="M5,8C4.991,8 4.981,8 4.972,8C3.874,8 2.972,8.903 2.972,10C2.972,11.097 3.874,12 4.972,12C4.981,12 4.991,12 5,12L45,12C45.009,12 45.019,12 45.028,12C46.126,12 47.028,11.097 47.028,10C47.028,8.903 46.126,8 45.028,8C45.019,8 45.009,8 45,8L5,8Z" style="fill:rgb(101,156,236);fill-rule:nonzero;"/>
            </g>
        </g>
    </g>
</svg>
